<?xml version="1.0" encoding="utf-8"?>
<!-- Generator: Adobe Illustrator 17.1.0, SVG Export Plug-In . SVG Version: 6.00 Build 0)  -->
<!DOCTYPE svg PUBLIC "-//W3C//DTD SVG 1.1//EN" "http://www.w3.org/Graphics/SVG/1.1/DTD/svg11.dtd">
<svg version="1.1" id="Layer_1" xmlns="http://www.w3.org/2000/svg" xmlns:xlink="http://www.w3.org/1999/xlink" x="0px" y="0px"
	 viewBox="0 0 512 512" enable-background="new 0 0 512 512" xml:space="preserve">
<g>
	<path fill="#FFFFFF" d="M446.5,512h-381C29.3,512,0,482.7,0,446.5v-381C0,29.3,29.3,0,65.5,0h381C482.7,0,512,29.3,512,65.5v381
		C512,482.7,482.7,512,446.5,512z"/>
</g>
<circle fill="#FF3A81" cx="306.4" cy="234.9" r="23"/>
<path fill="#D6A300" d="M332.7,458.2c38.8,0,78.2-27.5,81.7-72.2c-0.2-0.1-0.3-0.2-0.5-0.4c-13.6,11-30.5,16.9-48.1,16.9
	c-0.9,0-1.9,0-2.9-0.1c-10.6-0.4-20.6-2.9-29.7-7.2c-12.9,9.7-28.9,15.5-46.2,15.5c-12.8,0-24.9-3.2-35.5-8.7
	c-0.7,0.5-1.3,1-1.9,1.6C261.2,436.5,300.9,458.2,332.7,458.2z"/>
<path fill="#54C82C" d="M322.1,354.9c-6.2-8.3-10.1-19.1-11.2-30.8c-1.2-12.8,1.3-25.5,6.7-34.8l0.2-0.3l0.2-0.3
	c1.5-2.4,3-4.5,4.5-6.4c-10,7.5-22.5,12-36,12c-21,0-39.5-10.8-50.2-27.1h-22.7v-13.9c-9.8,0-19,0-20,0c-0.2-0.3-0.4-0.5-0.7-0.8
	c-0.1-0.1-0.2-0.2-0.3-0.3c-0.3-0.4-0.7-0.8-1-1.1c-0.1-0.2-0.3-0.3-0.4-0.5c-0.2-0.2-0.4-0.4-0.5-0.6c-0.2-0.2-0.4-0.5-0.7-0.7
	c-0.2-0.2-0.4-0.4-0.6-0.6c-0.2-0.2-0.5-0.4-0.7-0.6c-0.1-0.1-0.3-0.2-0.4-0.4c-0.3-0.3-0.6-0.6-1-0.8c-0.1-0.1-0.2-0.2-0.3-0.2
	c-0.3-0.2-0.5-0.4-0.8-0.6c-0.1-0.1-0.2-0.1-0.3-0.2c-0.3-0.2-0.6-0.4-1-0.6c-0.1,0-0.2-0.1-0.2-0.1c-0.3-0.2-0.6-0.3-0.8-0.4
	c0,0-0.1,0-0.1-0.1c-0.3-0.1-0.6-0.2-0.9-0.3c-0.1,0-0.1,0-0.2,0c-0.3-0.1-0.6-0.1-0.9-0.1c-0.1,0-0.3,0-0.5,0.1
	c-0.1,0-0.1,0-0.2,0.1c-0.1,0-0.2,0.1-0.3,0.1c-0.1,0-0.1,0.1-0.2,0.1c-0.1,0.1-0.2,0.1-0.3,0.2c-0.1,0-0.1,0.1-0.2,0.1
	c-0.1,0.1-0.2,0.1-0.3,0.2c-0.1,0.1-0.2,0.1-0.2,0.2c-0.1,0.1-0.2,0.2-0.3,0.3c-0.1,0.1-0.2,0.1-0.2,0.2c-0.1,0.1-0.2,0.2-0.3,0.3
	c-0.1,0.1-0.2,0.2-0.2,0.2c-0.1,0.1-0.2,0.2-0.3,0.4c-0.1,0.1-0.2,0.2-0.2,0.3c-0.1,0.1-0.2,0.3-0.4,0.4c-0.1,0.1-0.2,0.2-0.2,0.3
	c-0.2,0.2-0.3,0.4-0.5,0.6c-0.1,0.1-0.2,0.3-0.3,0.4c-0.1,0.2-0.3,0.4-0.4,0.5c-0.1,0.1-0.2,0.3-0.3,0.4c-0.1,0.1-0.2,0.3-0.3,0.4
	c-0.1,0.1-0.2,0.3-0.3,0.5c-0.1,0.1-0.2,0.3-0.3,0.4c-0.1,0.2-0.2,0.3-0.4,0.5c-0.1,0.1-0.2,0.3-0.3,0.4c-0.1,0.2-0.3,0.4-0.4,0.6
	c-0.1,0.1-0.1,0.2-0.2,0.3c-0.2,0.2-0.3,0.5-0.5,0.7c-4,5.8-8.4,12.3-11.7,12.3c-6.1,0-10.7-8.9-16.4-8.9c-5.7,0-10,11.1-15.7,11.1
	c-4.1,0-6.8-9.3-10.6-14.5c-0.2-0.2-0.4-0.5-0.5-0.7c0-0.1-0.1-0.1-0.1-0.1c-0.1-0.2-0.3-0.3-0.4-0.5c-0.1-0.1-0.1-0.1-0.2-0.2
	c-0.1-0.1-0.3-0.3-0.4-0.4c-0.1-0.1-0.1-0.1-0.2-0.2c-0.1-0.1-0.3-0.2-0.4-0.3c-0.1-0.1-0.2-0.1-0.2-0.2c-0.1-0.1-0.3-0.2-0.4-0.2
	c-0.1,0-0.2-0.1-0.2-0.1c-0.1-0.1-0.3-0.1-0.4-0.2c-0.1,0-0.2-0.1-0.2-0.1c-0.1,0-0.3-0.1-0.5-0.1c-0.1,0-0.1,0-0.2-0.1
	c-0.2,0-0.5-0.1-0.7-0.1c-0.2,0-0.5,0-0.7,0.1c-0.1,0-0.2,0-0.2,0c-0.2,0-0.3,0.1-0.5,0.1c-0.1,0-0.2,0.1-0.2,0.1
	c-0.2,0.1-0.3,0.1-0.5,0.2c-0.1,0-0.2,0.1-0.2,0.1c-0.2,0.1-0.4,0.2-0.5,0.3c-0.1,0-0.1,0.1-0.2,0.1c-1,0.6-2,1.4-3,2.4
	c-1.5,1.5-6.1,5.3-12.2,5.3c-16.2,0-33.5,0-41.4,0c0,19.1,7.9,39.5,23.5,48c22.2,12.1,46.7,5.7,60.3,5.7c27.4,0,50.9,14.6,58,39.7
	c0.1,0.4,0.2,0.6,0.3,1c0,18.9,16.1,33.6,35,33.6c8.9,0,17.1-3.4,23.2-9c9.1,6.8,20.5,10.9,32.7,10.9c17.5,0,33.1-8.3,43.1-21.1
	c-0.3-0.3-0.6-0.6-0.9-0.9C325.3,362.4,323.1,358.4,322.1,354.9z"/>
<path fill="#B200A7" d="M451.3,235.7c-2.8,4.4-5.4,7.7-6.9,9.6l-0.3,0.4c-13.3,16.8-32.1,26-52.9,26c-11.4,0-22.9-2.9-32.4-8.1
	c-6-3.3-11-7.4-14.7-12c-0.1,0.1-0.1,0.2-0.2,0.4c-1.2,3.9-2.7,7.6-4.6,11.1c-4.1,7.6-9.9,14.2-16.8,19.4c-1.5,1.9-3,4-4.5,6.4
	l-0.2,0.3l-0.2,0.3c-5.4,9.3-7.9,22-6.7,34.8c1.1,11.7,5,22.5,11.2,30.8c1.1,3.6,3.2,7.5,7.1,11.6c0.3,0.3,0.6,0.6,0.9,0.9
	c0.3,0.3,0.5,0.4,0.8,0.7c3.2,2.7,6.1,4.2,9.8,6.1c6.9,3.6,14.7,5.7,23,6c0.7,0,1.4,0,2,0c26.1,0,48.2-18.4,53.4-43.3
	c1.2,0.1,2.5,0.1,3.7,0.1c30.2,0,54.6-24.5,54.6-54.6C477.6,262.6,467.1,245.3,451.3,235.7z"/>
<path fill="#FF3A81" d="M456.6,211.9c0-30.2-24.5-54.6-54.6-54.6c-1.1,0-2.1,0-3.2,0.1c-0.6-29.6-24.8-53.5-54.6-53.5
	c-9.4,0-18.3,2.4-26,6.6c9.9,17.8,9.6,33.8,7.6,44.1c-2.3,11.4-7.1,18.6-8,20l-4.3,6.2c19.6,9.9,33,30.2,33,53.6
	c0,5.9-0.9,11.7-2.5,17.1c0,0,0.1,0.1,0.1,0.1c3.8,4.6,8.7,8.7,14.7,12c9.5,5.2,21,8.1,32.4,8.1c20.8,0,39.6-9.2,52.9-26l0.3-0.4
	c1.5-1.9,4.1-5.2,6.9-9.6c0,0-0.1,0-0.1-0.1c3-6.3,4.9-13.2,5.3-20.5C456.6,214,456.6,213,456.6,211.9z"/>
<path fill="#0099B0" d="M318.2,110.5c-0.2,0.1-0.4,0.2-0.6,0.3c-2.2-4.4-5-8.5-8.2-12.1c-10-11.2-24.6-18.3-40.8-18.3
	c-18.2,0-34.4,8.9-44.3,22.7c-10-13-25.7-21.4-43.4-21.4c-27.4,0-50.2,20.2-54,46.6c-4.1-1-8.3-1.5-12.7-1.5
	c-30.2,0-54.6,24.5-54.6,54.6c0,4.9-6.8,30-5.7,34h69.3l0.5-0.9l0.2,0.9h89.7v-13.9h22.7c10.7-16.3,29.2-27.1,50.2-27.1c0,0,0,0,0,0
	c9.7,0,18.9,2.3,27,6.4l4.3-6.2c0.9-1.3,5.7-8.6,8-20C327.8,144.3,328.1,128.3,318.2,110.5z"/>
</svg>
