<?xml version="1.0" encoding="UTF-8" standalone="no"?>
<!-- Created with Inkscape (http://www.inkscape.org/) -->

<svg
   xmlns:dc="http://purl.org/dc/elements/1.1/"
   xmlns:cc="http://creativecommons.org/ns#"
   xmlns:rdf="http://www.w3.org/1999/02/22-rdf-syntax-ns#"
   xmlns:svg="http://www.w3.org/2000/svg"
   xmlns="http://www.w3.org/2000/svg"
   xmlns:sodipodi="http://sodipodi.sourceforge.net/DTD/sodipodi-0.dtd"
   xmlns:inkscape="http://www.inkscape.org/namespaces/inkscape"
   width="423.6232"
   height="377.79999"
   id="svg2"
   version="1.1"
   inkscape:version="0.48.5 r10040"
   sodipodi:docname="New document 1">
  <defs
     id="defs4" />
  <sodipodi:namedview
     id="base"
     pagecolor="#ffffff"
     bordercolor="#666666"
     borderopacity="1.0"
     inkscape:pageopacity="0.0"
     inkscape:pageshadow="2"
     inkscape:zoom="0.49497475"
     inkscape:cx="232.66686"
     inkscape:cy="75.836244"
     inkscape:document-units="px"
     inkscape:current-layer="layer1"
     showgrid="false"
     fit-margin-top="0"
     fit-margin-left="0"
     fit-margin-right="0"
     fit-margin-bottom="0"
     inkscape:window-width="1920"
     inkscape:window-height="1017"
     inkscape:window-x="-8"
     inkscape:window-y="-8"
     inkscape:window-maximized="1" />
  <metadata
     id="metadata7">
    <rdf:RDF>
      <cc:Work
         rdf:about="">
        <dc:format>image/svg+xml</dc:format>
        <dc:type
           rdf:resource="http://purl.org/dc/dcmitype/StillImage" />
        <dc:title></dc:title>
      </cc:Work>
    </rdf:RDF>
  </metadata>
  <g
     inkscape:label="Layer 1"
     inkscape:groupmode="layer"
     id="layer1"
     transform="translate(-140.63675,-188.19075)">
    <g
       id="g3008"
       transform="translate(86.857141,107.79075)">
      <g
         id="g2986">
	
</g>
      <circle
         id="circle2990"
         r="23"
         cy="234.89999"
         cx="306.39999"
         sodipodi:cx="306.39999"
         sodipodi:cy="234.89999"
         sodipodi:rx="23"
         sodipodi:ry="23"
         style="fill:#333333"
         d="m 329.39999,234.89999 c 0,12.70255 -10.29745,23 -23,23 -12.70255,0 -23,-10.29745 -23,-23 0,-12.70255 10.29745,-23 23,-23 12.70255,0 23,10.29745 23,23 z" />
      <path
         id="path2992"
         d="m 332.7,458.2 c 38.8,0 78.2,-27.5 81.7,-72.2 -0.2,-0.1 -0.3,-0.2 -0.5,-0.4 -13.6,11 -30.5,16.9 -48.1,16.9 -0.9,0 -1.9,0 -2.9,-0.1 -10.6,-0.4 -20.6,-2.9 -29.7,-7.2 -12.9,9.7 -28.9,15.5 -46.2,15.5 -12.8,0 -24.9,-3.2 -35.5,-8.7 -0.7,0.5 -1.3,1 -1.9,1.6 11.6,32.9 51.3,54.6 83.1,54.6 z"
         inkscape:connector-curvature="0"
         style="fill:#d6a300" />
      <path
         id="path2994"
         d="m 322.1,354.9 c -6.2,-8.3 -10.1,-19.1 -11.2,-30.8 -1.2,-12.8 1.3,-25.5 6.7,-34.8 l 0.2,-0.3 0.2,-0.3 c 1.5,-2.4 3,-4.5 4.5,-6.4 -10,7.5 -22.5,12 -36,12 -21,0 -39.5,-10.8 -50.2,-27.1 h -22.7 v -13.9 c -9.8,0 -19,0 -20,0 -0.2,-0.3 -0.4,-0.5 -0.7,-0.8 -0.1,-0.1 -0.2,-0.2 -0.3,-0.3 -0.3,-0.4 -0.7,-0.8 -1,-1.1 -0.1,-0.2 -0.3,-0.3 -0.4,-0.5 -0.2,-0.2 -0.4,-0.4 -0.5,-0.6 -0.2,-0.2 -0.4,-0.5 -0.7,-0.7 -0.2,-0.2 -0.4,-0.4 -0.6,-0.6 -0.2,-0.2 -0.5,-0.4 -0.7,-0.6 -0.1,-0.1 -0.3,-0.2 -0.4,-0.4 -0.3,-0.3 -0.6,-0.6 -1,-0.8 -0.1,-0.1 -0.2,-0.2 -0.3,-0.2 -0.3,-0.2 -0.5,-0.4 -0.8,-0.6 -0.1,-0.1 -0.2,-0.1 -0.3,-0.2 -0.3,-0.2 -0.6,-0.4 -1,-0.6 -0.1,0 -0.2,-0.1 -0.2,-0.1 -0.3,-0.2 -0.6,-0.3 -0.8,-0.4 0,0 -0.1,0 -0.1,-0.1 -0.3,-0.1 -0.6,-0.2 -0.9,-0.3 -0.1,0 -0.1,0 -0.2,0 -0.3,-0.1 -0.6,-0.1 -0.9,-0.1 -0.1,0 -0.3,0 -0.5,0.1 -0.1,0 -0.1,0 -0.2,0.1 -0.1,0 -0.2,0.1 -0.3,0.1 -0.1,0 -0.1,0.1 -0.2,0.1 -0.1,0.1 -0.2,0.1 -0.3,0.2 -0.1,0 -0.1,0.1 -0.2,0.1 -0.1,0.1 -0.2,0.1 -0.3,0.2 -0.1,0.1 -0.2,0.1 -0.2,0.2 -0.1,0.1 -0.2,0.2 -0.3,0.3 -0.1,0.1 -0.2,0.1 -0.2,0.2 -0.1,0.1 -0.2,0.2 -0.3,0.3 -0.1,0.1 -0.2,0.2 -0.2,0.2 -0.1,0.1 -0.2,0.2 -0.3,0.4 -0.1,0.1 -0.2,0.2 -0.2,0.3 -0.1,0.1 -0.2,0.3 -0.4,0.4 -0.1,0.1 -0.2,0.2 -0.2,0.3 -0.2,0.2 -0.3,0.4 -0.5,0.6 -0.1,0.1 -0.2,0.3 -0.3,0.4 -0.1,0.2 -0.3,0.4 -0.4,0.5 -0.1,0.1 -0.2,0.3 -0.3,0.4 -0.1,0.1 -0.2,0.3 -0.3,0.4 -0.1,0.1 -0.2,0.3 -0.3,0.5 -0.1,0.1 -0.2,0.3 -0.3,0.4 -0.1,0.2 -0.2,0.3 -0.4,0.5 -0.1,0.1 -0.2,0.3 -0.3,0.4 -0.1,0.2 -0.3,0.4 -0.4,0.6 -0.1,0.1 -0.1,0.2 -0.2,0.3 -0.2,0.2 -0.3,0.5 -0.5,0.7 -4,5.8 -8.4,12.3 -11.7,12.3 -6.1,0 -10.7,-8.9 -16.4,-8.9 -5.7,0 -10,11.1 -15.7,11.1 -4.1,0 -6.8,-9.3 -10.6,-14.5 -0.2,-0.2 -0.4,-0.5 -0.5,-0.7 0,-0.1 -0.1,-0.1 -0.1,-0.1 -0.1,-0.2 -0.3,-0.3 -0.4,-0.5 -0.1,-0.1 -0.1,-0.1 -0.2,-0.2 -0.1,-0.1 -0.3,-0.3 -0.4,-0.4 -0.1,-0.1 -0.1,-0.1 -0.2,-0.2 -0.1,-0.1 -0.3,-0.2 -0.4,-0.3 -0.1,-0.1 -0.2,-0.1 -0.2,-0.2 -0.1,-0.1 -0.3,-0.2 -0.4,-0.2 -0.1,0 -0.2,-0.1 -0.2,-0.1 -0.1,-0.1 -0.3,-0.1 -0.4,-0.2 -0.1,0 -0.2,-0.1 -0.2,-0.1 -0.1,0 -0.3,-0.1 -0.5,-0.1 -0.1,0 -0.1,0 -0.2,-0.1 -0.2,0 -0.5,-0.1 -0.7,-0.1 -0.2,0 -0.5,0 -0.7,0.1 -0.1,0 -0.2,0 -0.2,0 -0.2,0 -0.3,0.1 -0.5,0.1 -0.1,0 -0.2,0.1 -0.2,0.1 -0.2,0.1 -0.3,0.1 -0.5,0.2 -0.1,0 -0.2,0.1 -0.2,0.1 -0.2,0.1 -0.4,0.2 -0.5,0.3 -0.1,0 -0.1,0.1 -0.2,0.1 -1,0.6 -2,1.4 -3,2.4 -1.5,1.5 -6.1,5.3 -12.2,5.3 -16.2,0 -33.5,0 -41.4,0 0,19.1 7.9,39.5 23.5,48 22.2,12.1 46.7,5.7 60.3,5.7 27.4,0 50.9,14.6 58,39.7 0.1,0.4 0.2,0.6 0.3,1 0,18.9 16.1,33.6 35,33.6 8.9,0 17.1,-3.4 23.2,-9 9.1,6.8 20.5,10.9 32.7,10.9 17.5,0 33.1,-8.3 43.1,-21.1 -0.3,-0.3 -0.6,-0.6 -0.9,-0.9 -4.2,-4.2 -6.4,-8.2 -7.4,-11.7 z"
         inkscape:connector-curvature="0"
         style="fill:#54c82c" />
      <path
         id="path2996"
         d="m 451.3,235.7 c -2.8,4.4 -5.4,7.7 -6.9,9.6 l -0.3,0.4 c -13.3,16.8 -32.1,26 -52.9,26 -11.4,0 -22.9,-2.9 -32.4,-8.1 -6,-3.3 -11,-7.4 -14.7,-12 -0.1,0.1 -0.1,0.2 -0.2,0.4 -1.2,3.9 -2.7,7.6 -4.6,11.1 -4.1,7.6 -9.9,14.2 -16.8,19.4 -1.5,1.9 -3,4 -4.5,6.4 l -0.2,0.3 -0.2,0.3 c -5.4,9.3 -7.9,22 -6.7,34.8 1.1,11.7 5,22.5 11.2,30.8 1.1,3.6 3.2,7.5 7.1,11.6 0.3,0.3 0.6,0.6 0.9,0.9 0.3,0.3 0.5,0.4 0.8,0.7 3.2,2.7 6.1,4.2 9.8,6.1 6.9,3.6 14.7,5.7 23,6 0.7,0 1.4,0 2,0 26.1,0 48.2,-18.4 53.4,-43.3 1.2,0.1 2.5,0.1 3.7,0.1 30.2,0 54.6,-24.5 54.6,-54.6 0.2,-20 -10.3,-37.3 -26.1,-46.9 z"
         inkscape:connector-curvature="0"
         style="fill:#b200a7" />
      <path
         id="path2998"
         d="m 456.6,211.9 c 0,-30.2 -24.5,-54.6 -54.6,-54.6 -1.1,0 -2.1,0 -3.2,0.1 -0.6,-29.6 -24.8,-53.5 -54.6,-53.5 -9.4,0 -18.3,2.4 -26,6.6 9.9,17.8 9.6,33.8 7.6,44.1 -2.3,11.4 -7.1,18.6 -8,20 l -4.3,6.2 c 19.6,9.9 33,30.2 33,53.6 0,5.9 -0.9,11.7 -2.5,17.1 0,0 0.1,0.1 0.1,0.1 3.8,4.6 8.7,8.7 14.7,12 9.5,5.2 21,8.1 32.4,8.1 20.8,0 39.6,-9.2 52.9,-26 l 0.3,-0.4 c 1.5,-1.9 4.1,-5.2 6.9,-9.6 0,0 -0.1,0 -0.1,-0.1 3,-6.3 4.9,-13.2 5.3,-20.5 0.1,-1.1 0.1,-2.1 0.1,-3.2 z"
         inkscape:connector-curvature="0"
         style="fill:#ff3a81" />
      <path
         id="path3000"
         d="m 318.2,110.5 c -0.2,0.1 -0.4,0.2 -0.6,0.3 -2.2,-4.4 -5,-8.5 -8.2,-12.1 -10,-11.2 -24.6,-18.3 -40.8,-18.3 -18.2,0 -34.4,8.9 -44.3,22.7 -10,-13 -25.7,-21.4 -43.4,-21.4 -27.4,0 -50.2,20.2 -54,46.6 -4.1,-1 -8.3,-1.5 -12.7,-1.5 -30.2,0 -54.6,24.5 -54.6,54.6 0,4.9 -6.8,30 -5.7,34 h 69.3 l 0.5,-0.9 0.2,0.9 h 89.7 v -13.9 h 22.7 c 10.7,-16.3 29.2,-27.1 50.2,-27.1 0,0 0,0 0,0 9.7,0 18.9,2.3 27,6.4 l 4.3,-6.2 c 0.9,-1.3 5.7,-8.6 8,-20 2,-10.3 2.3,-26.3 -7.6,-44.1 z"
         inkscape:connector-curvature="0"
         style="fill:#0099b0" />
    </g>
  </g>
</svg>
